<?xml version="1.0" encoding="UTF-8" standalone="no"?>
<!-- Created with Inkscape (http://www.inkscape.org/) -->

<svg
   xmlns:dc="http://purl.org/dc/elements/1.1/"
   xmlns:cc="http://creativecommons.org/ns#"
   xmlns:rdf="http://www.w3.org/1999/02/22-rdf-syntax-ns#"
   xmlns:svg="http://www.w3.org/2000/svg"
   xmlns="http://www.w3.org/2000/svg"
   xmlns:sodipodi="http://sodipodi.sourceforge.net/DTD/sodipodi-0.dtd"
   xmlns:inkscape="http://www.inkscape.org/namespaces/inkscape"
   version="1.1"
   id="svg10"
   xml:space="preserve"
   width="732"
   height="185.33333"
   viewBox="0 0 732 185.33333"
   sodipodi:docname="南京理工大学whole.svg"
   inkscape:version="0.92.3 (2405546, 2018-03-11)"><sodipodi:namedview
     pagecolor="#ffffff"
     bordercolor="#666666"
     borderopacity="1"
     objecttolerance="10"
     gridtolerance="10"
     guidetolerance="10"
     inkscape:pageopacity="0"
     inkscape:pageshadow="2"
     inkscape:window-width="1920"
     inkscape:window-height="1046"
     id="namedview12"
     showgrid="false"
     inkscape:zoom="2.3920765"
     inkscape:cx="366"
     inkscape:cy="92.666664"
     inkscape:window-x="-11"
     inkscape:window-y="-11"
     inkscape:window-maximized="1"
     inkscape:current-layer="g18" /><metadata
     id="metadata16"><rdf:RDF><cc:Work
         rdf:about=""><dc:format>image/svg+xml</dc:format><dc:type
           rdf:resource="http://purl.org/dc/dcmitype/StillImage" /><dc:title></dc:title></cc:Work></rdf:RDF></metadata><defs
     id="defs14"><clipPath
       id="clipPath30"
       clipPathUnits="userSpaceOnUse"><path
         inkscape:connector-curvature="0"
         id="path28"
         d="M 0,0 H 549 V 139 H 0 Z" /></clipPath></defs><g
     transform="matrix(1.3333333,0,0,1.3333333,0,1.3e-6)"
     inkscape:label="南京理工大学whole"
     inkscape:groupmode="layer"
     id="g18"><g
       id="g20"><g
         id="g22"><g
           id="g24"><g
             clip-path="url(#clipPath30)"
             id="g26"><g
               id="g32"><path
                 inkscape:connector-curvature="0"
                 id="path34"
                 style="fill:#8b2579;fill-opacity:1;fill-rule:evenodd;stroke:none"
                 d="M 73.5,128.5 C 31.063,136.055 -5.516,91.254 9,49.5 c 5.652,-16.262 18.879,-29.668 34.5,-36 5.832,-1.332 11.668,-2.668 17.5,-4 80.289,-0.848 84.246,106.227 12.5,119 M 58,8.5 c -4.332,1 -8.668,2 -13,3 C 28.273,17.836 15.133,30.578 8.5,47 -8.16,88.258 28.023,137.387 72.5,130 147.477,117.547 144.539,7.113 58,8.5" /><path
                 inkscape:connector-curvature="0"
                 id="path36"
                 style="fill:#8b2579;fill-opacity:1;fill-rule:evenodd;stroke:none"
                 d="m 56.5,13.5 c 0.5,0.332 1,0.668 1.5,1 -0.168,1 -0.332,2 -0.5,3 -0.332,0.168 -0.668,0.332 -1,0.5 0.148,-2.457 1.129,-1.621 -1.5,-2.5 0.5,-0.668 1,-1.332 1.5,-2 m -4,4.5 c 2.375,4.434 2.984,4.016 2,9 1.832,-0.332 3.668,-0.668 5.5,-1 v -2 c -0.832,0.168 -1.668,0.332 -2.5,0.5 -0.484,-3.039 1.484,-1.914 -1,-4 1.344,-1.965 2.23,-3.234 2.5,-6.5 -0.332,-0.5 -0.668,-1 -1,-1.5 h -3 c -0.5,1.168 -1,2.332 -1.5,3.5 H 55 c -0.906,1.195 -1.09,1.27 -2.5,2" /><path
                 inkscape:connector-curvature="0"
                 id="path38"
                 style="fill:#8b2579;fill-opacity:1;fill-rule:evenodd;stroke:none"
                 d="m 51.5,19 c -1.152,4.664 -1.113,3.273 -0.5,8.5 3.262,-1.496 1.035,-5.437 1.5,-11 H 51 c -0.332,0.168 -0.668,0.332 -1,0.5 -0.332,0.5 -0.668,1 -1,1.5 1.352,0.965 0.836,0.609 2.5,0.5" /><path
                 inkscape:connector-curvature="0"
                 id="path40"
                 style="fill:#8b2579;fill-opacity:1;fill-rule:evenodd;stroke:none"
                 d="m 78,24 c 0.332,-0.168 0.668,-0.332 1,-0.5 -0.777,-2.094 0.102,-1.23 -2,-2 0.5,-1.332 1,-2.668 1.5,-4 -0.832,-0.332 -1.668,-0.668 -2.5,-1 -0.668,0.332 -1.332,0.668 -2,1 -0.168,0.332 -0.332,0.668 -0.5,1 1.469,0.805 1.168,0.762 3,0.5 -1.297,2.422 -2.453,1.91 -5,3 -0.332,0.168 -0.668,0.332 -1,0.5 0.168,0.5 0.332,1 0.5,1.5 z" /><path
                 inkscape:connector-curvature="0"
                 id="path42"
                 style="fill:#8b2579;fill-opacity:1;fill-rule:evenodd;stroke:none"
                 d="m 500,42.5 c 0.5,-0.168 1,-0.332 1.5,-0.5 0.168,-3.5 0.332,-7 0.5,-10.5 0.332,-0.168 0.668,-0.332 1,-0.5 1.52,1.609 2.09,2.641 4.5,3.5 0.168,0.332 0.332,0.668 0.5,1 -1,1.168 -2,2.332 -3,3.5 v 2 c 3.387,-0.832 22.172,-13.969 23.5,-16.5 0.168,-1.168 0.332,-2.332 0.5,-3.5 -1.961,-2.102 -2.16,-3.004 -6.5,-3 -0.832,0.332 -1.668,0.668 -2.5,1 0.699,0.949 0.039,0.305 1,1 -1.18,4.98 -5.863,9.355 -9.5,12 v -7.5 c -1.168,-0.668 -2.332,-1.332 -3.5,-2 -2.836,1.598 -4.07,3.508 -5,7 -0.668,0.5 -1.332,1 -2,1.5 -0.668,-1.832 -1.332,-3.668 -2,-5.5 -6.309,1.215 -6.367,8.582 -5,14.5 2,0.832 4,1.668 6,2.5" /><path
                 inkscape:connector-curvature="0"
                 id="path44"
                 style="fill:#8b2579;fill-opacity:1;fill-rule:evenodd;stroke:none"
                 d="m 201,80 c -2.488,1.625 -5.707,1.832 -8.5,0 h -1 c -0.609,-3.852 1.926,-5.906 1.5,-10.5 l -1,-1 c -1.332,0.5 -2.668,1 -4,1.5 2.332,-2.168 4.668,-4.332 7,-6.5 -0.328,-5.766 -0.039,-5.336 0.5,-11 -1.48,-1.504 -1.25,-2 -4,-2.5 -1.5,2.168 -3,4.332 -4.5,6.5 -1.512,-1.273 -1.129,-1.828 -3.5,-2.5 3.281,-4.098 8.715,-4.285 14,-6.5 4.285,0.07 6.578,0.957 9.5,2 5.758,9.98 -2.789,22.938 -6,30.5 m 11,-32.5 c -5.41,-8.023 -19.293,-2.68 -27,-1 2.031,-8.258 5.23,-7.547 12,-11 1.457,-0.828 1.5,-1.352 2.5,-2.5 -0.168,-1 -0.332,-2 -0.5,-3 -1.426,-0.848 -4.344,-0.43 -5.5,-1 -1.387,-4.535 -0.43,-5.914 -3,-9.5 -1.668,-0.332 -3.332,-0.668 -5,-1 -0.5,0.332 -1,0.668 -1.5,1 -0.5,4.332 -1,8.668 -1.5,13 -2.879,1.746 -6.68,3.102 -8.5,6 0.969,2.602 1.309,3.641 3.5,5 -2.27,9.594 -10.168,9.23 -14,16 -3.309,5.844 -1.184,18.063 -0.5,25 1.332,1 2.668,2 4,3 1.168,0.168 2.332,0.332 3.5,0.5 2.242,-6.937 -0.902,-16.871 -1,-26 6.555,-1.859 7.902,-3.937 12.5,-7 -0.559,2.855 -0.207,3.973 1,6 l -4.5,7.5 c 1.199,1.449 1.059,1.582 3.5,2 -1.332,2.168 -2.668,4.332 -4,6.5 v 0.5 c 2.934,1.813 5.582,0.996 9,-0.5 v 19.5 c 0.332,0.168 0.668,0.332 1,0.5 0.832,-5.332 1.668,-10.668 2.5,-16 0.332,-0.168 0.668,-0.332 1,-0.5 1.965,2.137 1.32,2.047 1.5,5 1.332,0.832 2.668,1.668 4,2.5 8.961,-1.039 22.418,-29.5 15,-40.5" /><path
                 inkscape:connector-curvature="0"
                 id="path46"
                 style="fill:#8b2579;fill-opacity:1;fill-rule:evenodd;stroke:none"
                 d="m 328,49 c -0.168,0.332 -0.332,0.668 -0.5,1 H 327 c -0.332,-1.668 -0.668,-3.332 -1,-5 0.668,0.5 1.332,1 2,1.5 1.008,0.902 0.371,-0.012 1,1.5 z m 18,29 c -3.23,-2.266 -7.609,-1.738 -13,-1.5 -0.168,-1.5 -0.332,-3 -0.5,-4.5 2.832,-2.332 5.668,-4.668 8.5,-7 0.168,-1.332 0.332,-2.668 0.5,-4 -3.184,-1.461 -5.391,-0.121 -9,0.5 0.168,-1.5 0.332,-3 0.5,-4.5 10.816,-6.172 23.738,-23.215 13.5,-36.5 -3.168,-0.332 -6.332,-0.668 -9.5,-1 -5.738,3.313 -12.687,5.359 -13.5,13.5 2.168,0.332 4.332,0.668 6.5,1 3.402,-3.344 6.766,-5.34 11,-8 h 2 c 0.5,0.832 1,1.668 1.5,2.5 2.605,6.496 -3.176,13.605 -5,18 -1.641,0.816 -2.895,1.09 -5,0.5 2.055,-4.508 5.176,-5.711 7,-10.5 -2.219,-2.559 -5.246,-2.398 -8.5,-3.5 -2.586,2.098 -5.926,6.082 -6.5,10 -2.117,-1.617 -2.566,-2.836 -5.5,-4 -4.355,3.23 -3.379,8.941 -2,15 2.832,1.5 5.668,3 8.5,4.5 1.426,6.992 -4.809,7.637 -6.5,13 1.293,1.266 2.652,1.703 5,2 -0.168,1.168 -0.332,2.332 -0.5,3.5 -2.918,2.711 -5.594,3.09 -8,6.5 0.332,1.168 0.668,2.332 1,3.5 l 1,1 c 4,-1.168 8,-2.332 12,-3.5 3.832,0.332 7.668,0.668 11.5,1 2.254,-1.164 2.984,-3.191 4,-5.5 -0.48,-1.812 0.031,-1.02 -1,-2" /><path
                 inkscape:connector-curvature="0"
                 id="path48"
                 style="fill:#8b2579;fill-opacity:1;fill-rule:evenodd;stroke:none"
                 d="m 35,22.5 c -0.668,-0.5 -1.332,-1 -2,-1.5 -0.332,0.332 -0.668,0.668 -1,1 0.668,0.5 1.332,1 2,1.5 0.332,-0.332 0.668,-0.668 1,-1" /><path
                 inkscape:connector-curvature="0"
                 id="path50"
                 style="fill:#8b2579;fill-opacity:1;fill-rule:evenodd;stroke:none"
                 d="m 36.5,24 c 0.832,-0.832 1.668,-1.668 2.5,-2.5 -0.668,-0.168 -1.332,-0.332 -2,-0.5 -1.832,3 -3.668,6 -5.5,9 v 0.5 H 33 c 1.168,-2.168 2.332,-4.332 3.5,-6.5" /><path
                 inkscape:connector-curvature="0"
                 id="path52"
                 style="fill:#8b2579;fill-opacity:1;fill-rule:evenodd;stroke:none"
                 d="m 251,36 c 3.203,-1.98 6.727,-1.75 11.5,-2 1.07,-1.953 1.707,-3.934 1,-6.5 -1.516,-3.437 -4.621,-5.445 -8.5,-6.5 -2.016,1.754 -3.254,2.328 -4.5,5 l 3,4.5 c -0.832,1.832 -1.668,3.668 -2.5,5.5" /><path
                 inkscape:connector-curvature="0"
                 id="path54"
                 style="fill:#8b2579;fill-opacity:1;fill-rule:evenodd;stroke:none"
                 d="m 92.5,30 c 0.332,1.832 0.668,3.668 1,5.5 0.5,0.168 1,0.332 1.5,0.5 0.883,-1.398 -0.277,-3.512 -0.5,-7 1.168,-0.168 2.332,-0.332 3.5,-0.5 0.414,-2.012 0.371,-2.184 1,-5 -0.332,-0.168 -0.668,-0.332 -1,-0.5 -1.785,2.539 -2.293,2.949 -6,2.5 L 91.5,26 c 0.5,0.668 1,1.332 1.5,2 -1.832,0.668 -3.668,1.332 -5.5,2 1.844,1.027 2.84,0.758 5,0" /><path
                 inkscape:connector-curvature="0"
                 id="path56"
                 style="fill:#8b2579;fill-opacity:1;fill-rule:evenodd;stroke:none"
                 d="m 445,66 c 0.5,-0.332 1,-0.668 1.5,-1 4.711,10.137 6.941,19.805 22.5,19.5 1.168,-1.668 2.332,-3.332 3.5,-5 -8.211,-6.207 -19.773,-11.113 -23,-22 1.906,-4.641 3,-7.367 9.5,-7.5 1.168,-2.668 2.332,-5.332 3.5,-8 -0.168,-0.332 -0.332,-0.668 -0.5,-1 -3.391,-1.074 -5.047,-1.531 -8,0 V 28 c -1.105,-2.437 -2.488,-3.457 -5.5,-4 -2.879,4.063 -2.879,13.188 -3,20 -3.633,2.391 -8.586,3.898 -14,4.5 -0.5,0.668 -1,1.332 -1.5,2 0.188,3.07 0.809,4.52 2.5,6 3.191,0.598 6.645,0.031 9.5,-1 -1.855,10.148 -10.984,21.867 -20,25 -0.168,0.332 -0.332,0.668 -0.5,1 12.348,0.273 20.203,-6.977 23.5,-15.5" /><path
                 inkscape:connector-curvature="0"
                 id="path58"
                 style="fill:#8b2579;fill-opacity:1;fill-rule:evenodd;stroke:none"
                 d="m 38,25.5 h -1.5 c -0.941,3.094 -1.422,-0.234 -1.5,4.5 0.5,0.332 1,0.668 1.5,1 0.168,-1.5 0.332,-3 0.5,-4.5 1.043,2.633 1.133,4.762 0,7 h 3.5 c -0.203,-2.578 -1,-1.809 1,-3 C 40.203,28.305 41.191,29.602 39,30 38.668,28.5 38.332,27 38,25.5" /><path
                 inkscape:connector-curvature="0"
                 id="path60"
                 style="fill:#8b2579;fill-opacity:1;fill-rule:evenodd;stroke:none"
                 d="M 26.5,58.5 C 31.57,40.066 43.695,36.113 60.5,29 116.324,28 119.754,98.762 73,109 44.813,115.172 18.664,86.977 26.5,58.5 m 36,-31 C 44.699,34.48 34.285,35.43 27,53 c -12.012,28.965 12.699,63.555 45,57.5 49.109,-9.207 45.895,-84.035 -9.5,-83" /><path
                 inkscape:connector-curvature="0"
                 id="path62"
                 style="fill:#8b2579;fill-opacity:1;fill-rule:evenodd;stroke:none"
                 d="m 280,35 c -0.668,-0.332 -1.332,-0.668 -2,-1 -0.832,-0.168 -1.668,-0.332 -2.5,-0.5 -14.859,8.672 -37.434,8.574 -48,21.5 v 0.5 c 0.168,0.332 0.332,0.668 0.5,1 l 3,1.5 c 8.148,-4.129 15.523,-9.578 25,-12 -5.293,6.734 -12.645,9.617 -12.5,22 0.832,0.668 1.668,1.332 2.5,2 3.195,-2.629 3.121,-5.945 5.5,-9.5 3.332,-2.332 6.668,-4.668 10,-7 0.832,0.168 1.668,0.332 2.5,0.5 v 0.5 c -4.504,4.559 -10.254,7.113 -14,12.5 v 2.5 h 3.5 c -0.332,2.332 -0.668,4.668 -1,7 -3.637,2.359 -5.934,2.613 -10.5,3.5 -0.332,1.332 -0.668,2.668 -1,4 1.125,1.445 1.355,2.012 3,3 2.332,-1.5 4.668,-3 7,-4.5 1.27,4.285 0.367,6.43 5,7.5 1.996,-2.988 1.734,-4.875 1.5,-10 2.039,-1.129 3.914,-1.605 7.5,-1.5 -0.637,2.195 -0.617,2.117 -2.5,3 3.563,1.445 5.984,-1.355 8,-3 -0.168,-0.832 -0.332,-1.668 -0.5,-2.5 -1.984,-3.434 -8.121,-2.824 -12,-1.5 -0.691,-5.301 7.395,-15.379 8,-23.5 -7.074,-2.68 -13.332,2.602 -17,6.5 h -0.5 C 252.918,39.809 282.559,47.281 280,35" /><path
                 inkscape:connector-curvature="0"
                 id="path64"
                 style="fill:#8b2579;fill-opacity:1;fill-rule:evenodd;stroke:none"
                 d="m 303.5,64 c 1,-1.168 2,-2.332 3,-3.5 h 1 c -0.465,2.723 -1.195,4.277 -2.5,6 h -0.5 c -0.332,-0.832 -0.668,-1.668 -1,-2.5 m 15,-3.5 V 60 h -1 c -2.668,5.5 -5.332,11 -8,16.5 -0.5,0.332 -1,0.668 -1.5,1 h -0.5 c 2.168,-6.164 4.332,-12.336 6.5,-18.5 0.426,-3.527 -1.668,-7.645 -0.5,-12 1.07,-3.996 3.75,-5.559 4.5,-10.5 -0.332,-0.668 -0.668,-1.332 -1,-2 -1.332,-0.168 -2.668,-0.332 -4,-0.5 -4.164,1.832 -8.332,3.668 -12.5,5.5 -0.168,1.332 -0.332,2.668 -0.5,4 0.832,1.168 1.668,2.332 2.5,3.5 3.41,0.629 4.969,-0.187 7.5,-1.5 h 0.5 c -0.168,2.832 -0.332,5.668 -0.5,8.5 -5.582,5.32 -11.973,2.453 -12,14 1.918,2.063 2.641,3.188 6,4 -1.039,3.414 -3.992,8.746 -2.5,12.5 0.5,0.668 1,1.332 1.5,2 9.582,-1.723 12.152,-17.766 15.5,-26" /><path
                 inkscape:connector-curvature="0"
                 id="path66"
                 style="fill:#8b2579;fill-opacity:1;fill-rule:evenodd;stroke:none"
                 d="m 535,39 c -3.176,-2.359 -5.449,-3.691 -11.5,-3.5 -10.266,4.602 -22.687,5.262 -28.5,14 7.969,-2.422 27.316,-13.824 34,-11.5 1.383,0.789 1.184,0.723 2,2 -2.258,4.711 -6.32,8.316 -11.5,10 5.035,3.852 12.332,-2.344 15,-4.5 0.656,-2.578 0.77,-3.52 0.5,-6.5" /><path
                 inkscape:connector-curvature="0"
                 id="path68"
                 style="fill:#8b2579;fill-opacity:1;fill-rule:evenodd;stroke:none"
                 d="m 22.5,40.5 c 0.168,0.5 0.332,1 0.5,1.5 -1.008,-0.902 -0.371,0.012 -1,-1.5 z m 2,8.5 h 2 v -0.5 c -1.168,-0.668 -2.332,-1.332 -3.5,-2 -0.332,-1.168 -0.668,-2.332 -1,-3.5 1.844,0.684 2.102,0.961 3,2.5 2.652,-1.008 0.762,-0.914 3.5,-0.5 -1.395,-2.098 -3.762,-4.266 -6.5,-5 0.5,-0.832 1,-1.668 1.5,-2.5 H 25 c 1.789,2.031 3.445,2.996 3,6 0.332,0.168 0.668,0.332 1,0.5 0.332,-0.5 0.668,-1 1,-1.5 -0.332,-0.832 -0.668,-1.668 -1,-2.5 -2.133,-1.68 -2.402,-3.074 -6,-3.5 -0.668,1.5 -1.332,3 -2,4.5 H 20.5 C 20.332,39.668 20.168,38.332 20,37 h -3 c -0.332,0.168 -0.668,0.332 -1,0.5 2.703,3.988 4.883,8.387 8.5,11.5" /><path
                 inkscape:connector-curvature="0"
                 id="path70"
                 style="fill:#8b2579;fill-opacity:1;fill-rule:evenodd;stroke:none"
                 d="M 74.5,103.5 V 103 c -1.5,-1.168 -3,-2.332 -4.5,-3.5 h -1 c 7.188,-5.437 20.094,-0.141 25,-8 V 91 c -3.832,1.168 -7.668,2.332 -11.5,3.5 V 94 C 89.492,91.348 96.664,88.473 100,82 v -3 c -2.168,2.332 -4.332,4.668 -6.5,7 1.965,-6.09 11.328,-12.398 7.5,-21.5 v -1 c -1,3.168 -2,6.332 -3,9.5 H 97.5 C 97.129,66.121 99.832,58.863 98,51.5 97.168,50.832 96.332,50.168 95.5,49.5 V 55 C 91.148,50.148 93.887,42.688 87,40 c 0.668,2 1.332,4 2,6 -4.426,-3.773 -6.145,-10.574 -14.5,-9 4.426,4.336 12.66,6.762 15.5,12.5 l -4.5,-3 H 85 c 1.73,7.059 8.633,8.445 11.5,15 v 3 c -1.641,-1.57 -2.59,-3.687 -3,-6.5 -5.012,6.672 6.219,14.117 1,22 -0.168,0.332 -0.332,0.668 -0.5,1 -0.168,-3.668 -0.332,-7.332 -0.5,-11 H 93 c -1.676,6.191 1.305,16.074 -4,19.5 1.367,-2.703 2.473,-4.836 2.5,-9 C 91.168,80.332 90.832,80.168 90.5,80 87.273,95.082 62.488,104.813 48,93 45.5,89 43,85 40.5,81 V 80 H 40 c -0.227,4.016 0.664,6.52 2.5,9.5 -6.176,-2.988 -2.5,-10.84 -3.5,-18 -0.332,-0.332 -0.668,-0.668 -1,-1 -1.48,2.816 -0.684,6.43 -0.5,10.5 -6.859,-6.73 3.629,-14.012 1,-21.5 v -1 H 38 c -0.832,1.5 -1.668,3 -2.5,4.5 v 1 c -0.332,-0.168 -0.668,-0.332 -1,-0.5 2.379,-7.738 6.801,-9.895 11.5,-15 v -2 h -0.5 c -1.5,1.168 -3,2.332 -4.5,3.5 1.641,-4.355 10.566,-10.516 15,-12 0.168,-0.332 0.332,-0.668 0.5,-1 -1.5,-0.168 -3,-0.332 -4.5,-0.5 -3.441,2.723 -6.652,4.668 -8.5,9 -0.332,0.168 -0.668,0.332 -1,0.5 0.5,-1.832 1,-3.668 1.5,-5.5 V 40 h -0.5 c -4.633,2.648 -5.562,8.82 -7,14.5 -0.332,0.168 -0.668,0.332 -1,0.5 V 50 H 35 c -5.672,4.789 -1.297,15.016 -1,23 H 33.5 L 31,63 h -0.5 c -2.727,10.992 4.305,14.609 7,22.5 -2.277,-1.656 -4.383,-3.668 -5.5,-6.5 -0.332,0.168 -0.668,0.332 -1,0.5 1.02,10.762 11.48,9.453 17.5,15 -3.664,-1.168 -7.336,-2.332 -11,-3.5 v 2 c 5.676,3.516 15.801,5.086 24.5,5.5 0.168,0.332 0.332,0.668 0.5,1 -1.668,1 -3.332,2 -5,3 h -1 c 0.832,0.5 1.668,1 2.5,1.5 2,-1.332 4,-2.668 6,-4 4.438,1.066 5.008,3.75 9.5,3.5" /><path
                 inkscape:connector-curvature="0"
                 id="path72"
                 style="fill:#8b2579;fill-opacity:1;fill-rule:evenodd;stroke:none"
                 d="m 112,39.5 c -0.668,0.332 -1.332,0.668 -2,1 -0.547,1.129 1.988,0.605 6,2.5 0.332,-0.168 0.668,-0.332 1,-0.5 -0.969,-2.516 -0.387,-1.527 -3.5,-1.5 0.332,-0.668 0.668,-1.332 1,-2 -1.168,-0.668 -2.332,-1.332 -3.5,-2 -0.5,0.668 -1,1.332 -1.5,2 v 0.5 c 0.832,-0.168 1.668,-0.332 2.5,-0.5 z" /><path
                 inkscape:connector-curvature="0"
                 id="path74"
                 style="fill:#8b2579;fill-opacity:1;fill-rule:evenodd;stroke:none"
                 d="m 106,38 c -0.332,0.168 -0.668,0.332 -1,0.5 -0.168,0.5 -0.332,1 -0.5,1.5 0.832,-0.168 1.668,-0.332 2.5,-0.5 -0.477,-1.336 0.52,-0.527 -1,-1.5" /><path
                 inkscape:connector-curvature="0"
                 id="path76"
                 style="fill:#8b2579;fill-opacity:1;fill-rule:evenodd;stroke:none"
                 d="m 406.5,63.5 c -0.832,-1.168 -1.668,-2.332 -2.5,-3.5 -1.668,0.668 -3.332,1.332 -5,2 h -4 c 2.18,-7.961 8.832,-13.512 3,-22 -2.832,-0.332 -5.668,-0.668 -8.5,-1 -4.187,3.219 -8.797,4.813 -12,9 0.535,4.047 2.043,4.555 4.5,6.5 4.602,-0.605 6.914,-2.457 10.5,-4 L 393,51 c -2.332,3.832 -4.668,7.668 -7,11.5 -7.047,5.219 -20.047,1.469 -19,13.5 10.031,5.852 23.891,-8.066 36.5,-4 2.82,-1.598 4.324,-4.324 3,-8.5" /><path
                 inkscape:connector-curvature="0"
                 id="path78"
                 style="fill:#8b2579;fill-opacity:1;fill-rule:evenodd;stroke:none"
                 d="m 108,47.5 c 0.5,0.332 1,0.668 1.5,1 L 110,48 108,44 h 2.5 v -0.5 c -0.895,-0.91 -4.922,-1.707 -7.5,-2.5 0.656,2.078 0.258,1.586 2,2.5 0.332,0.5 0.668,1 1,1.5 -1.945,0.465 -2.426,0.266 -4,-0.5 l -0.5,0.5 v 0.5 c 2.34,1.203 5.059,0.238 6.5,2" /><path
                 inkscape:connector-curvature="0"
                 id="path80"
                 style="fill:#8b2579;fill-opacity:1;fill-rule:evenodd;stroke:none"
                 d="m 112,42 1.5,1.5 C 112.688,42.172 113.348,42.801 112,42" /><path
                 inkscape:connector-curvature="0"
                 id="path82"
                 style="fill:#8b2579;fill-opacity:1;fill-rule:evenodd;stroke:none"
                 d="m 111,44.5 c 1.145,1.199 0.789,1.113 3,1.5 -0.168,-0.832 -0.332,-1.668 -0.5,-2.5 -1.078,2.145 -0.266,1.078 -2.5,1" /><path
                 inkscape:connector-curvature="0"
                 id="path84"
                 style="fill:#8b2579;fill-opacity:1;fill-rule:evenodd;stroke:none"
                 d="m 50,58.5 c 6.27,0.109 12.012,0.699 15.5,3.5 2.805,-3.117 9.82,-3.387 15.5,-3.5 1.672,6.125 0.348,15.879 -0.5,21.5 -0.5,0.332 -1,0.668 -1.5,1 C 78.832,76.832 78.668,72.664 78.5,68.5 75.027,65.355 58.855,67.34 53,67.5 52.832,72 52.668,76.5 52.5,81 52,80.832 51.5,80.668 51,80.5 49.637,74.633 49.898,65.879 50,58.5 m 0,-3 c 4.488,-0.02 9.508,1.555 12.715,2.43 1.637,0.125 3.285,0.23 4.902,0.289 C 71.121,57.473 76.063,55.48 81.5,55.5 V 56 C 78.613,58.082 73.32,58.434 67.617,58.219 66.84,58.387 66.129,58.492 65.5,58.5 64.941,58.508 63.961,58.27 62.715,57.93 58.023,57.57 53.43,57.055 50,57 Z M 50,52 c 5.508,0.043 9.008,0.645 12.059,1.023 C 58.383,52.164 53.672,50.578 50,50.5 v -2 c 6.262,0.039 11.27,2.527 15,3 3.34,0.422 10.215,-2.941 16,-3 0.168,0.668 0.332,1.332 0.5,2 -5.652,0.086 -10.406,1.941 -14.066,2.793 C 69.32,53.184 71.387,52.813 74,52 h 7.5 C 77.918,57.676 57.273,54.121 50,53.5 Z M 75.5,81 H 72 v -7 h 3.5 z m -3,3 v 2 c -0.668,0.332 -1.332,0.668 -2,1 1.121,-1.867 0.918,-1.641 0,-3.5 h 2 z M 69,81 H 62.5 C 62.332,78.668 62.168,76.332 62,74 h 7 z m -2.5,6 c 1.586,-2.23 0.496,-0.859 0.5,-3.5 1.809,0.676 0.578,0.418 2,2.5 -0.832,0.332 -1.668,0.668 -2.5,1 m -2,-0.5 c -0.668,0.168 -1.332,0.332 -2,0.5 1.375,-2.328 0.285,-0.586 0,-3.5 h 2 z m -9,-5.5 v -7 h 4 c -0.168,2.332 -0.332,4.668 -0.5,7 z m 3.5,2.5 c 1.047,1.031 0.945,1.297 1,3.5 -0.332,-1.168 -0.668,-2.332 -1,-3.5 M 64,93 C 84.102,97.152 82.969,65.969 82.5,47.5 76.141,47.52 68.789,50.957 65,50.5 60.871,50.004 55.328,47.512 48.5,47.5 47.969,69.043 46.57,89.398 64,93" /><path
                 inkscape:connector-curvature="0"
                 id="path86"
                 style="fill:#8b2579;fill-opacity:1;fill-rule:evenodd;stroke:none"
                 d="m 516,61 h -3 v -0.5 c 2.617,-3.707 9.23,-9.562 2.5,-12.5 -1,-0.168 -2,-0.332 -3,-0.5 -1.832,0.668 -3.668,1.332 -5.5,2 0.555,3.348 1.688,3.551 4.5,4.5 -1.574,2.977 -3.301,4.637 -3.5,9 -6.332,2.332 -12.668,4.668 -19,7 -0.168,0.668 -0.332,1.332 -0.5,2 l 3.5,3.5 c 5.594,0.348 14.16,-3.141 19,-6 h 0.5 c 0.168,0.332 0.332,0.668 0.5,1 0.047,5.684 -1.535,10.789 -5,13 -3.137,2.227 -5.875,-1.199 -8,-3 h -0.5 c 0.898,4.512 2.805,8.133 6.5,10 8.773,-0.664 12.406,-11.09 12,-21 4.262,-2.34 9.371,-1.836 14,-0.5 0.832,-1 1.668,-2 2.5,-3 3.902,-9.395 -12.754,-6.937 -17.5,-5" /><path
                 inkscape:connector-curvature="0"
                 id="path88"
                 style="fill:#8b2579;fill-opacity:1;fill-rule:evenodd;stroke:none"
                 d="m 484.5,62.5 c 1.668,0.332 3.332,0.668 5,1 h 0.5 c 0.5,-4.332 1,-8.668 1.5,-13 -1.332,-0.332 -2.668,-0.668 -4,-1 -0.332,0.168 -0.668,0.332 -1,0.5 -1.461,2.344 -3.777,7.695 -2.5,11 0.168,0.5 0.332,1 0.5,1.5" /><path
                 inkscape:connector-curvature="0"
                 id="path90"
                 style="fill:#8b2579;fill-opacity:1;fill-rule:evenodd;stroke:none"
                 d="m 66.5,53.5 c 0.297,-0.055 0.617,-0.137 0.934,-0.207 -1.856,0.105 -3.536,-0.039 -5.375,-0.27 1.816,0.426 3.382,0.676 4.441,0.477" /><path
                 inkscape:connector-curvature="0"
                 id="path92"
                 style="fill:#8b2579;fill-opacity:1;fill-rule:evenodd;stroke:none"
                 d="m 113.5,57.5 c -0.668,0.5 -1.332,1 -2,1.5 v 0.5 c 1.832,-0.668 3.668,-1.332 5.5,-2 -0.738,-1.445 -3.289,-1.258 -6,-1.5 0.898,1.086 0.934,0.992 2.5,1.5" /><path
                 inkscape:connector-curvature="0"
                 id="path94"
                 style="fill:#8b2579;fill-opacity:1;fill-rule:evenodd;stroke:none"
                 d="M 19,62 V 61.5 L 16,60 c 1.168,-0.332 2.332,-0.668 3.5,-1 v -1 c -1.832,-0.332 -3.668,-0.668 -5.5,-1 0.91,1.023 1.406,1.09 3,1.5 -1.332,0.668 -2.668,1.332 -4,2 V 61 c 1.832,0.332 3.668,0.668 5.5,1 z" /><path
                 inkscape:connector-curvature="0"
                 id="path96"
                 style="fill:#8b2579;fill-opacity:1;fill-rule:evenodd;stroke:none"
                 d="m 115,62.5 c 0.875,-0.621 0.832,-0.785 1.5,-1.5 h 0.5 v 2.5 c -0.832,0.168 -1.668,0.332 -2.5,0.5 H 114 v -3 c -0.332,-0.168 -0.668,-0.332 -1,-0.5 l -1,1 c 0.168,0.832 0.332,1.668 0.5,2.5 1.98,1.078 3.539,1.516 5,-0.5 l 1,-1 C 117.453,60.391 118.012,60.328 115,60 Z" /><path
                 inkscape:connector-curvature="0"
                 id="path98"
                 style="fill:#8b2579;fill-opacity:1;fill-rule:evenodd;stroke:none"
                 d="m 15,64 c 0.5,0.332 1,0.668 1.5,1 -1.492,-0.645 -0.602,0.02 -1.5,-1 m -2,-2 c 0.699,0.949 0.039,0.305 1,1 -0.437,2.457 0.371,1.504 -1.5,2.5 V 67 c 2,-0.5 4,-1 6,-1.5 C 17.512,63.199 15.516,62.613 13,62" /><path
                 inkscape:connector-curvature="0"
                 id="path100"
                 style="fill:#8b2579;fill-opacity:1;fill-rule:evenodd;stroke:none"
                 d="m 117.5,69 c -0.832,0.168 -1.668,0.332 -2.5,0.5 h -0.5 c -0.332,-0.5 -0.668,-1 -1,-1.5 l 1.5,-1.5 c 0.832,0.168 1.668,0.332 2.5,0.5 z m -3,-3.5 c -1.172,1.242 -1.379,0.938 -2,3 0.695,0.941 0.473,0.82 1.5,1.5 1.168,0.168 2.332,0.332 3.5,0.5 0.5,-0.832 1,-1.668 1.5,-2.5 -0.332,-0.668 -0.668,-1.332 -1,-2 -1.168,-0.168 -2.332,-0.332 -3.5,-0.5" /><path
                 inkscape:connector-curvature="0"
                 id="path102"
                 style="fill:#8b2579;fill-opacity:1;fill-rule:evenodd;stroke:none"
                 d="M 18.5,72 V 71.5 C 17.332,71.332 16.168,71.168 15,71 c 1.168,-0.668 2.332,-1.332 3.5,-2 V 67.5 H 15 c -0.832,0.168 -1.668,0.332 -2.5,0.5 1.168,0.168 2.332,0.332 3.5,0.5 -1.168,0.668 -2.332,1.332 -3.5,2 1.086,1.93 2.969,1.73 6,1.5" /><path
                 inkscape:connector-curvature="0"
                 id="path104"
                 style="fill:#8b2579;fill-opacity:1;fill-rule:evenodd;stroke:none"
                 d="m 117.5,74 c -1.668,-0.168 -3.332,-0.332 -5,-0.5 1.23,1.301 3.441,1.531 6,1.5 V 71.5 H 118 c -0.168,0.832 -0.332,1.668 -0.5,2.5" /><path
                 inkscape:connector-curvature="0"
                 id="path106"
                 style="fill:#8b2579;fill-opacity:1;fill-rule:evenodd;stroke:none"
                 d="M 19,75.5 V 75 h -5 v -2.5 c -0.5,0.668 -1,1.332 -1.5,2 1.801,1.871 3.254,1.363 6.5,1" /><path
                 inkscape:connector-curvature="0"
                 id="path108"
                 style="fill:#8b2579;fill-opacity:1;fill-rule:evenodd;stroke:none"
                 d="m 117,78.5 c -0.168,0.332 -0.332,0.668 -0.5,1 -0.832,-0.168 -1.668,-0.332 -2.5,-0.5 h -1 c 0.168,-0.832 0.332,-1.668 0.5,-2.5 0.668,0.168 1.332,0.332 2,0.5 0.5,0.332 1,0.668 1.5,1 z m -3.5,-3 c -1.301,1.598 -1.637,2.02 -1,4.5 1.5,0.168 3,0.332 4.5,0.5 l 1,-1 v -2 c -1.32,-1.52 -1.672,-1.812 -4.5,-2" /><path
                 inkscape:connector-curvature="0"
                 id="path110"
                 style="fill:#8b2579;fill-opacity:1;fill-rule:evenodd;stroke:none"
                 d="m 19,76.5 h -2 c -1.332,0.332 -2.668,0.668 -4,1 V 78 c 2,-0.168 4,-0.332 6,-0.5 z" /><path
                 inkscape:connector-curvature="0"
                 id="path112"
                 style="fill:#8b2579;fill-opacity:1;fill-rule:evenodd;stroke:none"
                 d="m 14,83 c 2,-0.168 4,-0.332 6,-0.5 V 82 h -3.5 c 0.5,-0.332 1,-0.668 1.5,-1 0.5,-0.668 1,-1.332 1.5,-2 -0.832,-0.168 -1.668,-0.332 -2.5,-0.5 -1.168,0.332 -2.332,0.668 -3.5,1 V 80 H 17 c -1,0.832 -2,1.668 -3,2.5 z" /><path
                 inkscape:connector-curvature="0"
                 id="path114"
                 style="fill:#8b2579;fill-opacity:1;fill-rule:evenodd;stroke:none"
                 d="m 114,83 c -1.332,0.5 -2.668,1 -4,1.5 l 6,1.5 c -1,-1.191 -1.062,-1.125 -3,-1.5 V 84 c 1.168,-0.168 2.332,-0.332 3.5,-0.5 0.168,-0.332 0.332,-0.668 0.5,-1 -1.832,-0.668 -3.668,-1.332 -5.5,-2 0.477,1.051 1.301,1.055 2.5,2.5" /><path
                 inkscape:connector-curvature="0"
                 id="path116"
                 style="fill:#8b2579;fill-opacity:1;fill-rule:evenodd;stroke:none"
                 d="m 19,86.5 c -1.008,0.902 -0.371,-0.012 -1,1.5 -0.5,-0.168 -1,-0.332 -1.5,-0.5 0.168,-0.832 0.332,-1.668 0.5,-2.5 0.668,-0.168 1.332,-0.332 2,-0.5 1.496,1.578 0.918,0.758 1,3 h 0.5 c 1.078,-1.426 0.801,-1.477 0.5,-3.5 -1,-0.168 -2,-0.332 -3,-0.5 -0.668,0.332 -1.332,0.668 -2,1 -0.859,3.801 -0.156,4.438 3.5,4 -0.168,-0.668 -0.332,-1.332 -0.5,-2" /><path
                 inkscape:connector-curvature="0"
                 id="path118"
                 style="fill:#8b2579;fill-opacity:1;fill-rule:evenodd;stroke:none"
                 d="m 64,85 -1,-1 c 0.699,0.949 0.039,0.305 1,1" /><path
                 inkscape:connector-curvature="0"
                 id="path120"
                 style="fill:#8b2579;fill-opacity:1;fill-rule:evenodd;stroke:none"
                 d="m 111.5,87.5 c -1.398,1.637 -0.687,1.109 -3,0.5 1.188,2.039 3.277,2.594 5.5,3.5 -0.738,-1.645 -0.984,-1.359 -2,-2.5 1.398,-1.637 0.688,-1.109 3,-0.5 0.168,-0.332 0.332,-0.668 0.5,-1 -2,-0.668 -4,-1.332 -6,-2 0.676,0.941 1.254,1.191 2,2" /><path
                 inkscape:connector-curvature="0"
                 id="path122"
                 style="fill:#8b2579;fill-opacity:1;fill-rule:evenodd;stroke:none"
                 d="m 24,93.5 c 0.332,-0.168 0.668,-0.332 1,-0.5 v -0.5 c -1.5,0.668 -3,1.332 -4.5,2 -0.332,-0.332 -0.668,-0.668 -1,-1 1.332,-0.832 2.668,-1.668 4,-2.5 V 90 H 22 c -1.168,0.668 -2.332,1.332 -3.5,2 v 2.5 c 0.832,0.332 1.668,0.668 2.5,1 1,-0.668 2,-1.332 3,-2" /><path
                 inkscape:connector-curvature="0"
                 id="path124"
                 style="fill:#8b2579;fill-opacity:1;fill-rule:evenodd;stroke:none"
                 d="m 111,94.5 c -0.5,-0.168 -1,-0.332 -1.5,-0.5 h -1 c -0.301,-2.254 -0.371,-1.484 1,-3 v -0.5 h -2 c -0.332,0.668 -0.668,1.332 -1,2 0.902,1.484 0.855,1.68 2.5,2.5 h 3.5 v -3 c -0.332,-0.168 -0.668,-0.332 -1,-0.5 -0.168,1 -0.332,2 -0.5,3" /><path
                 inkscape:connector-curvature="0"
                 id="path126"
                 style="fill:#8b2579;fill-opacity:1;fill-rule:evenodd;stroke:none"
                 d="M 27.5,96.5 C 26.668,97 25.832,97.5 25,98 H 24.5 L 26,95 c -0.332,-0.332 -0.668,-0.668 -1,-1 l -4.5,3 v 0.5 c 1.168,-0.332 2.332,-0.668 3.5,-1 -0.5,1.332 -1,2.668 -1.5,4 H 23 c 1.969,-1.07 3.477,-1.934 4.5,-4" /><path
                 inkscape:connector-curvature="0"
                 id="path128"
                 style="fill:#8b2579;fill-opacity:1;fill-rule:evenodd;stroke:none"
                 d="m 107,98.5 c 0.332,-1 0.668,-2 1,-3 -0.5,0.668 -1,1.332 -1.5,2 H 106 c -0.879,-1.602 0.508,-1.82 -0.5,-3.5 -0.668,1.168 -1.332,2.332 -2,3.5 1.668,1 3.332,2 5,3 0.668,-1 1.332,-2 2,-3 V 97 c -0.832,0.668 -1.668,1.332 -2.5,2 -0.332,-0.168 -0.668,-0.332 -1,-0.5" /><path
                 inkscape:connector-curvature="0"
                 id="path130"
                 style="fill:#8b2579;fill-opacity:1;fill-rule:evenodd;stroke:none"
                 d="m 102,99.5 -1,1 c 2,0.832 4,1.668 6,2.5 -1.477,-1.941 -2.934,-4.25 -4,-5.5 -0.332,0.668 -0.668,1.332 -1,2" /><path
                 inkscape:connector-curvature="0"
                 id="path132"
                 style="fill:#8b2579;fill-opacity:1;fill-rule:evenodd;stroke:none"
                 d="m 28,98 c -1.5,1.168 -3,2.332 -4.5,3.5 v 0.5 c 1.852,-0.086 2.387,-1.035 4.5,-2 0.652,-1.891 0.691,-0.422 0,-2" /><path
                 inkscape:connector-curvature="0"
                 id="path134"
                 style="fill:#8b2579;fill-opacity:1;fill-rule:evenodd;stroke:none"
                 d="M 32,102.5 V 102 c -1.332,0.5 -2.668,1 -4,1.5 0.5,-1.332 1,-2.668 1.5,-4 h -1 l -2.5,5 c 1.406,0.938 3.281,-0.016 5,-1.5 0.332,-0.168 0.668,-0.332 1,-0.5" /><path
                 inkscape:connector-curvature="0"
                 id="path136"
                 style="fill:#8b2579;fill-opacity:1;fill-rule:evenodd;stroke:none"
                 d="m 33,107.5 h 0.5 C 33,106.668 32.5,105.832 32,105 v -0.5 c 0.832,0.5 1.668,1 2.5,1.5 H 35 c -0.844,-1.805 -1.172,-2.176 -3,-3 l -1,2 c -0.832,0.832 -1.668,1.668 -2.5,2.5 1,0.832 2,1.668 3,2.5 L 30,107 c 2.133,-0.719 0.879,-0.578 3,0.5" /><path
                 inkscape:connector-curvature="0"
                 id="path138"
                 style="fill:#8b2579;fill-opacity:1;fill-rule:evenodd;stroke:none"
                 d="m 101,107.5 c -1.66,0.445 -0.602,0.563 -1.5,-1 0.5,0.332 1,0.668 1.5,1 m -2.5,1 c 0.668,0.168 1.332,0.332 2,0.5 0.5,-0.668 1,-1.332 1.5,-2 0.949,-0.699 0.305,-0.039 1,-1 -2.758,-0.918 -2.707,-1.578 -5.5,-2.5 -0.34,2.473 0.414,2.238 1,5" /><path
                 inkscape:connector-curvature="0"
                 id="path140"
                 style="fill:#8b2579;fill-opacity:1;fill-rule:evenodd;stroke:none"
                 d="m 36.5,109.5 c -0.805,-1.422 -0.449,-0.445 -0.5,-2 0.5,0.332 1,0.668 1.5,1 -0.332,0.332 -0.668,0.668 -1,1 m 2,-2 -3,-1.5 c -0.668,1.168 -1.332,2.332 -2,3.5 -0.332,0.5 -0.668,1 -1,1.5 0.832,-0.5 1.668,-1 2.5,-1.5 v 3.5 c 0.332,0.168 0.668,0.332 1,0.5 0.398,-1.934 0.293,-2 1.5,-3 0.332,-1 0.668,-2 1,-3" /><path
                 inkscape:connector-curvature="0"
                 id="path142"
                 style="fill:#8b2579;fill-opacity:1;fill-rule:evenodd;stroke:none"
                 d="M 95.5,109.5 V 109 c -1,0.332 -2,0.668 -3,1 v -0.5 c 1.387,-1.961 1.32,-1.094 1,-2.5 l -1.5,1.5 c -0.332,0.168 -0.668,0.332 -1,0.5 1,1.332 2,2.668 3,4 v 1 l 3,-1.5 c 0.168,-0.332 0.332,-0.668 0.5,-1 V 111 l -3,1.5 c -0.156,-1.797 0.051,-1.375 1,-3" /><path
                 inkscape:connector-curvature="0"
                 id="path144"
                 style="fill:#8b2579;fill-opacity:1;fill-rule:evenodd;stroke:none"
                 d="M 170.5,115 H 170 c -1.168,-2.5 -2.332,-5 -3.5,-7.5 h -2 V 120 c 2.035,-1.172 1.762,-4.277 1.5,-7.5 1.332,2.332 2.668,4.668 4,7 0.832,0.168 1.668,0.332 2.5,0.5 v -12.5 h -2 z" /><path
                 inkscape:connector-curvature="0"
                 id="path146"
                 style="fill:#8b2579;fill-opacity:1;fill-rule:evenodd;stroke:none"
                 d="m 177.5,115 c 0.332,-1.332 0.668,-2.668 1,-4 0.5,1.332 1,2.668 1.5,4 z m 0.5,-7.5 c -1.332,4.168 -2.668,8.332 -4,12.5 h 2 c 0.168,-0.832 0.332,-1.668 0.5,-2.5 0.332,-0.168 0.668,-0.332 1,-0.5 3.988,0.133 3.215,1.012 5,3 h 1.5 c -1.332,-4.168 -2.668,-8.332 -4,-12.5 z" /><path
                 inkscape:connector-curvature="0"
                 id="path148"
                 style="fill:#8b2579;fill-opacity:1;fill-rule:evenodd;stroke:none"
                 d="M 191.5,115 H 191 c -1.168,-2.5 -2.332,-5 -3.5,-7.5 h -2 V 120 h 2 v -7 h 0.5 c 1,2.168 2,4.332 3,6.5 0.832,0.168 1.668,0.332 2.5,0.5 v -12.5 h -2 z" /><path
                 inkscape:connector-curvature="0"
                 id="path150"
                 style="fill:#8b2579;fill-opacity:1;fill-rule:evenodd;stroke:none"
                 d="m 199.5,117.5 c -0.332,0.168 -0.668,0.332 -1,0.5 -1.477,-1.098 -1.187,-1.461 -3.5,-2 0.168,1 0.332,2 0.5,3 1.5,0.332 3,0.668 4.5,1 0.5,-0.668 1,-1.332 1.5,-2 v -10.5 h -2 z" /><path
                 inkscape:connector-curvature="0"
                 id="path152"
                 style="fill:#8b2579;fill-opacity:1;fill-rule:evenodd;stroke:none"
                 d="M 203.5,107.5 H 206 V 120 h -2.5 z" /><path
                 inkscape:connector-curvature="0"
                 id="path154"
                 style="fill:#8b2579;fill-opacity:1;fill-rule:evenodd;stroke:none"
                 d="m 214.5,115.5 c -1.668,-2.668 -3.332,-5.332 -5,-8 H 208 V 120 h 2 v -7.5 h 0.5 c 1.168,2.5 2.332,5 3.5,7.5 h 2 v -12.5 c -2.074,1.203 -1.766,4.711 -1.5,8" /><path
                 inkscape:connector-curvature="0"
                 id="path156"
                 style="fill:#8b2579;fill-opacity:1;fill-rule:evenodd;stroke:none"
                 d="m 225.5,115.5 c -0.723,2.348 -0.371,2.051 -3,2.5 H 222 c -1.148,-1.836 -1.594,-3.051 -1.5,-6.5 V 111 c 2.074,-1.316 3.492,-2.324 5,0.5 0.668,-0.168 1.332,-0.332 2,-0.5 v -1.5 c -1.922,-1.309 -2.484,-1.957 -6,-2 -0.832,0.668 -1.668,1.332 -2.5,2 -1.27,4.145 -1.387,8.273 2.5,10 1.777,0.832 3.703,0.426 5,-0.5 0.5,-0.168 1,-0.332 1.5,-0.5 v -5 h -4.5 c 0.75,2.352 -0.383,1.277 2,2" /><path
                 inkscape:connector-curvature="0"
                 id="path158"
                 style="fill:#8b2579;fill-opacity:1;fill-rule:evenodd;stroke:none"
                 d="m 240,117 c -1,0.332 -2,0.668 -3,1 -0.332,-0.5 -0.668,-1 -1,-1.5 v -9 h -2 c 0.168,3.5 0.332,7 0.5,10.5 0.168,0.5 0.332,1 0.5,1.5 h 5 c 0.5,-0.168 1,-0.332 1.5,-0.5 0.168,-0.5 0.332,-1 0.5,-1.5 v -10 h -2 z" /><path
                 inkscape:connector-curvature="0"
                 id="path160"
                 style="fill:#8b2579;fill-opacity:1;fill-rule:evenodd;stroke:none"
                 d="M 250.5,115 H 250 c -1.168,-2.5 -2.332,-5 -3.5,-7.5 h -2 V 120 h 2 v -7 c 1.168,2.168 2.332,4.332 3.5,6.5 0.832,0.168 1.668,0.332 2.5,0.5 v -12.5 c -2.633,1.09 -2.305,3.816 -2,7.5" /><path
                 inkscape:connector-curvature="0"
                 id="path162"
                 style="fill:#8b2579;fill-opacity:1;fill-rule:evenodd;stroke:none"
                 d="M 254.5,107.5 H 257 V 120 h -2.5 z" /><path
                 inkscape:connector-curvature="0"
                 id="path164"
                 style="fill:#8b2579;fill-opacity:1;fill-rule:evenodd;stroke:none"
                 d="m 263,115 v 1 h -0.5 c -0.836,-3.352 -0.965,-7.57 -4.5,-8.5 1.168,3.832 2.332,7.668 3.5,11.5 v 1 c 4.211,-0.875 4.926,-8.195 6,-12 v -0.5 h -2 c -0.832,2.5 -1.668,5 -2.5,7.5" /><path
                 inkscape:connector-curvature="0"
                 id="path166"
                 style="fill:#8b2579;fill-opacity:1;fill-rule:evenodd;stroke:none"
                 d="m 276.5,109.5 c -1.117,-2.68 -4.246,-2.309 -8,-2 V 120 h 8 v -2 H 271 c -0.168,-1.168 -0.332,-2.332 -0.5,-3.5 h 5.5 v -2 h -5.5 V 110 c 2,-0.168 4,-0.332 6,-0.5" /><path
                 inkscape:connector-curvature="0"
                 id="path168"
                 style="fill:#8b2579;fill-opacity:1;fill-rule:evenodd;stroke:none"
                 d="m 284.5,112.5 c -1.332,0.168 -2.668,0.332 -4,0.5 v -3.5 c 1.332,0.168 2.668,0.332 4,0.5 z m 2.5,-2 c -1.707,-2.84 -3.699,-3.262 -8.5,-3 V 120 h 2 v -5 h 2 c 0.832,1.668 1.668,3.332 2.5,5 h 2.5 c -0.668,-1.5 -1.332,-3 -2,-4.5 -0.605,-1.527 0.781,-1.887 1.5,-5" /><path
                 inkscape:connector-curvature="0"
                 id="path170"
                 style="fill:#8b2579;fill-opacity:1;fill-rule:evenodd;stroke:none"
                 d="M 291,111.5 V 110 c 2.266,-0.48 2.438,-0.574 3.5,1.5 0.668,-0.332 1.332,-0.668 2,-1 -1.422,-2.488 -1.914,-3.059 -6,-3 -0.5,0.832 -1,1.668 -1.5,2.5 -1.148,3.016 1.797,4.695 5,5 0.168,0.832 0.332,1.668 0.5,2.5 -0.832,0.168 -1.668,0.332 -2.5,0.5 -1.094,-1.031 -0.969,-0.676 -1.5,-2.5 -0.668,0.168 -1.332,0.332 -2,0.5 v 2 c 1.941,1.371 2.328,1.996 6,2 4.789,-3.789 1.148,-7.078 -3.5,-8.5" /><path
                 inkscape:connector-curvature="0"
                 id="path172"
                 style="fill:#8b2579;fill-opacity:1;fill-rule:evenodd;stroke:none"
                 d="m 298,107.5 h 3 V 120 h -3 z" /><path
                 inkscape:connector-curvature="0"
                 id="path174"
                 style="fill:#8b2579;fill-opacity:1;fill-rule:evenodd;stroke:none"
                 d="m 302,109.5 h 3 V 120 h 2 v -10.5 h 3 v -2 h -8 z" /><path
                 inkscape:connector-curvature="0"
                 id="path176"
                 style="fill:#8b2579;fill-opacity:1;fill-rule:evenodd;stroke:none"
                 d="m 316,111.5 c -0.332,0.168 -0.668,0.332 -1,0.5 -0.668,-1.5 -1.332,-3 -2,-4.5 h -2.5 c 1.738,4.137 3.645,5.996 3.5,12.5 h 2.5 c -0.043,-6.348 1.484,-8.156 3.5,-12 -0.5,-0.168 -1,-0.332 -1.5,-0.5 -0.832,1.332 -1.668,2.668 -2.5,4" /><path
                 inkscape:connector-curvature="0"
                 id="path178"
                 style="fill:#8b2579;fill-opacity:1;fill-rule:evenodd;stroke:none"
                 d="m 332,116 c -0.5,0.668 -1,1.332 -1.5,2 -5.238,-0.68 -4.078,-5.66 -2,-8.5 0.668,0.168 1.332,0.332 2,0.5 0.5,0.168 1,0.332 1.5,0.5 z m -0.5,-8 c -1.168,-0.168 -2.332,-0.332 -3.5,-0.5 -0.332,0.168 -0.668,0.332 -1,0.5 -2.293,3.152 -2.789,5.992 -1.5,10.5 1.797,1.047 2.785,1.523 6,1.5 0.832,-0.832 1.668,-1.668 2.5,-2.5 0.625,-3.031 0.258,-5.961 -0.5,-8.5 -0.668,-0.332 -1.332,-0.668 -2,-1" /><path
                 inkscape:connector-curvature="0"
                 id="path180"
                 style="fill:#8b2579;fill-opacity:1;fill-rule:evenodd;stroke:none"
                 d="m 336.5,120 h 2 v -5.5 h 4.5 c -0.871,-2.352 -1.355,-2.125 -4.5,-2 v -3 h 5 v -2 h -7 z" /><path
                 inkscape:connector-curvature="0"
                 id="path182"
                 style="fill:#8b2579;fill-opacity:1;fill-rule:evenodd;stroke:none"
                 d="m 354.5,108 c -1.168,-0.168 -2.332,-0.332 -3.5,-0.5 -0.5,0.832 -1,1.668 -1.5,2.5 -1.168,3.141 1.773,4.707 5,5 0.168,0.5 0.332,1 0.5,1.5 v 0.5 c -3.105,1.27 -2.754,-0.066 -6,-1 0.332,1.168 0.668,2.332 1,3.5 h 5 c 0.5,-0.168 1,-0.332 1.5,-0.5 v -4.5 c -1.074,-1.852 -1.961,-2.137 -4.5,-2.5 -0.332,-0.5 -0.668,-1 -1,-1.5 2.633,-1.238 2.516,-0.676 4.5,1 0.5,-0.168 1,-0.332 1.5,-0.5 v -0.5 c -0.902,-1.484 -0.855,-1.68 -2.5,-2.5" /><path
                 inkscape:connector-curvature="0"
                 id="path184"
                 style="fill:#8b2579;fill-opacity:1;fill-rule:evenodd;stroke:none"
                 d="m 366.5,111.5 1,-1 c -0.902,-1.484 -0.855,-1.68 -2.5,-2.5 -1,-0.168 -2,-0.332 -3,-0.5 -0.832,0.668 -1.668,1.332 -2.5,2 -0.867,3.262 -0.844,5.652 0,9 3.234,2.129 7.207,2.137 8,-2.5 -0.5,-0.168 -1,-0.332 -1.5,-0.5 -1.406,1.594 -0.781,1.914 -3.5,2.5 -0.332,-0.5 -0.668,-1 -1,-1.5 -0.168,-1.832 -0.332,-3.668 -0.5,-5.5 l 1.5,-1.5 z" /><path
                 inkscape:connector-curvature="0"
                 id="path186"
                 style="fill:#8b2579;fill-opacity:1;fill-rule:evenodd;stroke:none"
                 d="m 369,107.5 h 3 V 120 h -3 z" /><path
                 inkscape:connector-curvature="0"
                 id="path188"
                 style="fill:#8b2579;fill-opacity:1;fill-rule:evenodd;stroke:none"
                 d="m 381.5,109.5 c -1.117,-2.68 -4.246,-2.309 -8,-2 V 120 h 8 v -2 H 376 c -0.168,-1.168 -0.332,-2.332 -0.5,-3.5 h 5.5 v -2 h -5.5 V 110 c 2,-0.168 4,-0.332 6,-0.5" /><path
                 inkscape:connector-curvature="0"
                 id="path190"
                 style="fill:#8b2579;fill-opacity:1;fill-rule:evenodd;stroke:none"
                 d="m 389.5,115 c -1.332,-2.5 -2.668,-5 -4,-7.5 h -2 V 120 c 2.035,-1.172 1.762,-4.277 1.5,-7.5 1.332,2.332 2.668,4.668 4,7 0.832,0.168 1.668,0.332 2.5,0.5 v -12.5 h -2 z" /><path
                 inkscape:connector-curvature="0"
                 id="path192"
                 style="fill:#8b2579;fill-opacity:1;fill-rule:evenodd;stroke:none"
                 d="m 401,111.5 c 0.5,-0.168 1,-0.332 1.5,-0.5 l -1.5,-3 c -1.5,-0.168 -3,-0.332 -4.5,-0.5 -0.332,0.168 -0.668,0.332 -1,0.5 -1.477,2.324 -2.652,5.301 -1.5,9 0.828,1.688 0.793,1.691 2.5,2.5 h 3.5 c 1.574,-0.906 1.688,-1.398 2.5,-3 -0.5,-0.332 -1,-0.668 -1.5,-1 -1.598,1.406 -1.234,1.961 -4,2.5 -0.332,-0.668 -0.668,-1.332 -1,-2 -0.902,-2.02 -0.203,-4.301 0.5,-6 2.734,-0.277 2.523,0.102 4.5,1.5" /><path
                 inkscape:connector-curvature="0"
                 id="path194"
                 style="fill:#8b2579;fill-opacity:1;fill-rule:evenodd;stroke:none"
                 d="m 404.5,120 h 7.5 v -2 h -5.5 v -3.5 h 5 v -2 h -5 v -3 h 5.5 v -2 h -7.5 z" /><path
                 inkscape:connector-curvature="0"
                 id="path196"
                 style="fill:#8b2579;fill-opacity:1;fill-rule:evenodd;stroke:none"
                 d="M 422.5,111.5 H 422 c -0.965,-1.352 -0.609,-0.836 -0.5,-2.5 0.5,0.332 1,0.668 1.5,1 -0.168,0.5 -0.332,1 -0.5,1.5 m 0.5,6 c -0.332,0.168 -0.668,0.332 -1,0.5 h -2 c -0.168,-0.5 -0.332,-1 -0.5,-1.5 0.332,-0.668 0.668,-1.332 1,-2 1.227,0.785 1.566,1.5 2.5,2.5 z m 3.5,-3 c -2.055,0.008 -0.691,-0.641 -2,0.5 -1.805,-2.223 0.254,-3.176 -0.5,-7 -1.168,-0.168 -2.332,-0.332 -3.5,-0.5 -1.738,2.43 -2.363,6.34 -3,9.5 0.723,1.289 0.793,1.664 2,2.5 2.621,0.973 4.484,-0.078 6.5,0.5 0.332,-0.5 0.668,-1 1,-1.5 -1.297,-2.242 -1.02,-1.219 -0.5,-4" /><path
                 inkscape:connector-curvature="0"
                 id="path198"
                 style="fill:#8b2579;fill-opacity:1;fill-rule:evenodd;stroke:none"
                 d="m 432,109.5 h 3 V 120 h 2 v -10.5 h 3 v -2 h -8 z" /><path
                 inkscape:connector-curvature="0"
                 id="path200"
                 style="fill:#8b2579;fill-opacity:1;fill-rule:evenodd;stroke:none"
                 d="m 443.5,114.5 h 5.5 v -2 h -5.5 v -3 h 5.5 v -2 h -7.5 V 120 h 8 v -2 h -6 z" /><path
                 inkscape:connector-curvature="0"
                 id="path202"
                 style="fill:#8b2579;fill-opacity:1;fill-rule:evenodd;stroke:none"
                 d="m 457.5,111.5 c 0.832,-0.168 1.668,-0.332 2.5,-0.5 l -1.5,-3 c -1.5,-0.168 -3,-0.332 -4.5,-0.5 -0.832,0.832 -1.668,1.668 -2.5,2.5 -0.168,2.332 -0.332,4.668 -0.5,7 0.168,0.332 0.332,0.668 0.5,1 1.699,1.258 3.129,2.73 6,1.5 1.574,-0.906 1.688,-1.398 2.5,-3 -0.5,-0.332 -1,-0.668 -1.5,-1 -1.598,1.406 -1.234,1.961 -4,2.5 -0.332,-0.668 -0.668,-1.332 -1,-2 -0.168,-1.5 -0.332,-3 -0.5,-4.5 0.168,-0.332 0.332,-0.668 0.5,-1 2.152,-1.055 2.762,-1.41 4,1" /><path
                 inkscape:connector-curvature="0"
                 id="path204"
                 style="fill:#8b2579;fill-opacity:1;fill-rule:evenodd;stroke:none"
                 d="m 468,112.5 h -4 V 108 l -0.5,-0.5 H 462 c -0.168,4.168 -0.332,8.332 -0.5,12.5 h 2.5 v -5.5 h 4 v 5.5 h 2 v -12.5 h -2 z" /><path
                 inkscape:connector-curvature="0"
                 id="path206"
                 style="fill:#8b2579;fill-opacity:1;fill-rule:evenodd;stroke:none"
                 d="M 478.5,115.5 H 478 c -0.898,-3.113 -2.238,-7.074 -5.5,-8 -0.168,4.168 -0.332,8.332 -0.5,12.5 h 2 v -7.5 c 1.332,2.332 2.668,4.668 4,7 0.832,0.168 1.668,0.332 2.5,0.5 v -12.5 h -2 z" /><path
                 inkscape:connector-curvature="0"
                 id="path208"
                 style="fill:#8b2579;fill-opacity:1;fill-rule:evenodd;stroke:none"
                 d="m 490,116 v 0.5 l -3,1.5 c -0.668,-0.332 -1.332,-0.668 -2,-1 v -5.5 c 0.5,-0.668 1,-1.332 1.5,-2 h 2 c 1.148,1.836 1.594,3.051 1.5,6.5 m -1,-8 c -1.168,-0.168 -2.332,-0.332 -3.5,-0.5 -0.832,0.832 -1.668,1.668 -2.5,2.5 -0.168,2.332 -0.332,4.668 -0.5,7 1,0.832 2,1.668 3,2.5 h 4 c 4.164,-2.234 3.801,-9.699 -0.5,-11.5" /><path
                 inkscape:connector-curvature="0"
                 id="path210"
                 style="fill:#8b2579;fill-opacity:1;fill-rule:evenodd;stroke:none"
                 d="m 509.5,117.5 c -1,0.168 -2,0.332 -3,0.5 -2.141,-3.102 -2.184,-5.32 0,-8.5 0.668,0.168 1.332,0.332 2,0.5 1.195,0.832 1.301,1.199 2,2.5 -0.332,1.668 -0.668,3.332 -1,5 m 0,-9.5 c -1.168,-0.168 -2.332,-0.332 -3.5,-0.5 l -3,3 c -0.59,2.941 -0.195,5.434 0.5,8 1.797,1.047 2.785,1.523 6,1.5 0.832,-0.832 1.668,-1.668 2.5,-2.5 0.625,-3.031 0.258,-5.961 -0.5,-8.5 -0.668,-0.332 -1.332,-0.668 -2,-1" /><path
                 inkscape:connector-curvature="0"
                 id="path212"
                 style="fill:#8b2579;fill-opacity:1;fill-rule:evenodd;stroke:none"
                 d="m 519,113.5 c 0.766,2.398 -0.184,1.555 2.5,2 -0.332,0.832 -0.668,1.668 -1,2.5 H 518 c -1.68,-2.082 -2.203,-3.633 -1.5,-7 2.699,-1.73 3.117,-1.441 5.5,0.5 0.5,-0.168 1,-0.332 1.5,-0.5 -0.727,-1.977 -0.695,-2.098 -2.5,-3 -2.359,-1.012 -4.234,0.082 -6,1 -0.895,3.332 -0.906,6.168 0,9.5 0.668,0.332 1.332,0.668 2,1 h 5.5 c 0.77,-1.559 1.07,-3.234 1,-6 z" /><path
                 inkscape:connector-curvature="0"
                 id="path214"
                 style="fill:#8b2579;fill-opacity:1;fill-rule:evenodd;stroke:none"
                 d="m 530,112 h -0.5 l -2,-4 c -1,-0.168 -2,-0.332 -3,-0.5 2.094,4 4.133,6.086 4,12.5 h 2 c -0.023,-6.199 1.539,-8.129 3.5,-12 v -0.5 h -2 c -0.668,1.5 -1.332,3 -2,4.5" /><path
                 inkscape:connector-curvature="0"
                 id="path216"
                 style="fill:#8b2579;fill-opacity:1;fill-rule:evenodd;stroke:none"
                 d="m 496,108 h -2 v 12 h 7.5 v -2 h -5 c -0.168,-3.332 -0.332,-6.668 -0.5,-10" /><path
                 inkscape:connector-curvature="0"
                 id="path218"
                 style="fill:#8b2579;fill-opacity:1;fill-rule:evenodd;stroke:none"
                 d="m 40,111 v -0.5 c 0.668,0.5 1.332,1 2,1.5 h 0.5 v -2 c -1,-0.168 -2,-0.332 -3,-0.5 -0.418,1.973 -0.055,2.547 0.5,4.5 -1.645,-0.738 -1.359,-0.984 -2.5,-2 0.168,1 0.332,2 0.5,3 0.5,0.168 1,0.332 1.5,0.5 0.332,-0.168 0.668,-0.332 1,-0.5 0.867,-2.176 0.664,-1.848 -0.5,-4" /><path
                 inkscape:connector-curvature="0"
                 id="path220"
                 style="fill:#8b2579;fill-opacity:1;fill-rule:evenodd;stroke:none"
                 d="m 90.5,115 c -1.449,-1.199 -1.582,-1.059 -2,-3.5 h 2 c 0.168,-0.332 0.332,-0.668 0.5,-1 -0.832,-0.168 -1.668,-0.332 -2.5,-0.5 -0.332,0.5 -0.668,1 -1,1.5 0.223,3.328 0.891,4.066 4,4.5 l 1,-1 v -2 c -0.941,0.676 -1.191,1.254 -2,2" /><path
                 inkscape:connector-curvature="0"
                 id="path222"
                 style="fill:#8b2579;fill-opacity:1;fill-rule:evenodd;stroke:none"
                 d="m 43.5,111 c -0.832,1.832 -1.668,3.668 -2.5,5.5 2.305,-0.961 3.066,-2.773 3.5,-5.5 z" /><path
                 inkscape:connector-curvature="0"
                 id="path224"
                 style="fill:#8b2579;fill-opacity:1;fill-rule:evenodd;stroke:none"
                 d="m 45,112 c 0.734,2.52 0.168,2.832 -0.5,6 1.371,-1.008 1.508,-1.594 2,-3.5 0.332,-0.168 0.668,-0.332 1,-0.5 H 49 v 6 h 1 c 0.676,-2.723 1.637,-3.184 3,-5 v -0.5 c -0.832,0.5 -1.668,1 -2.5,1.5 -1.164,-2.762 -2.156,-3.484 -5.5,-4" /><path
                 inkscape:connector-curvature="0"
                 id="path226"
                 style="fill:#8b2579;fill-opacity:1;fill-rule:evenodd;stroke:none"
                 d="m 85,112 c 0.332,0.832 0.668,1.668 1,2.5 v 0.5 c -1,-0.668 -2,-1.332 -3,-2 h -0.5 c 0.5,1.832 1,3.668 1.5,5.5 0.332,0.168 0.668,0.332 1,0.5 -0.332,-1.168 -0.668,-2.332 -1,-3.5 l 4,2 c -0.445,-2.508 -1.133,-4.371 -3,-5.5" /><path
                 inkscape:connector-curvature="0"
                 id="path228"
                 style="fill:#8b2579;fill-opacity:1;fill-rule:evenodd;stroke:none"
                 d="M 82,116.5 81.5,116 H 79 c 1.301,-1.32 1.668,-1.387 2,-2.5 -1,0.332 -2,0.668 -3,1 0.5,1.668 1,3.332 1.5,5 0.168,0.332 0.332,0.668 0.5,1 l 3,-1.5 h -3 c 0.738,-1.777 0.848,-1.387 2,-2.5" /><path
                 inkscape:connector-curvature="0"
                 id="path230"
                 style="fill:#8b2579;fill-opacity:1;fill-rule:evenodd;stroke:none"
                 d="m 76,115 c 0.332,1.832 0.668,3.668 1,5.5 0.332,0.168 0.668,0.332 1,0.5 h 0.5 c -0.484,-2.398 -0.836,-4.723 -2.5,-6" /><path
                 inkscape:connector-curvature="0"
                 id="path232"
                 style="fill:#8b2579;fill-opacity:1;fill-rule:evenodd;stroke:none"
                 d="m 58.5,117 v 2.5 c -0.5,0.332 -1,0.668 -1.5,1 -0.5,-0.332 -1,-0.668 -1.5,-1 0.332,-1 0.668,-2 1,-3 0.668,0.168 1.332,0.332 2,0.5 m -4,0.5 c 0.168,0.832 0.332,1.668 0.5,2.5 0.332,0.5 0.668,1 1,1.5 1,-0.168 2,-0.332 3,-0.5 0.168,-1.5 0.332,-3 0.5,-4.5 -1.168,-0.332 -2.332,-0.668 -3.5,-1 -0.5,0.668 -1,1.332 -1.5,2" /><path
                 inkscape:connector-curvature="0"
                 id="path234"
                 style="fill:#8b2579;fill-opacity:1;fill-rule:evenodd;stroke:none"
                 d="m 73,120.5 c -0.168,-0.332 -0.332,-0.668 -0.5,-1 V 117 c 1.902,0.043 0.859,-0.137 2.5,0.5 0.168,-0.332 0.332,-0.668 0.5,-1 -0.5,-0.332 -1,-0.668 -1.5,-1 h -1.5 c -0.73,1.441 -1.273,2.637 -0.5,4.5 0.789,1.383 0.723,1.184 2,2 0.875,-0.785 1.281,-0.992 2,-2 v -0.5 c -0.832,0.332 -1.668,0.668 -2.5,1 z" /><path
                 inkscape:connector-curvature="0"
                 id="path236"
                 style="fill:#8b2579;fill-opacity:1;fill-rule:evenodd;stroke:none"
                 d="m 60,122 c 1.715,-1.195 1.047,-1.77 3.5,-2.5 -0.977,-1.02 -0.176,-0.543 -2,-1 1.078,-2.145 0.266,-1.078 2.5,-1 v -1 c -1.168,-0.168 -2.332,-0.332 -3.5,-0.5 -0.168,2 -0.332,4 -0.5,6" /><path
                 inkscape:connector-curvature="0"
                 id="path238"
                 style="fill:#8b2579;fill-opacity:1;fill-rule:evenodd;stroke:none"
                 d="m 68,116 -1.5,1.5 c 0.961,1.457 1.844,1.844 3,3 -1.531,0.98 -0.508,0.328 -3,0 0.762,1.09 0.898,1.246 2,2 0.668,-0.5 1.332,-1 2,-1.5 -0.762,-2.648 -1.387,-2.012 -3,-3.5 1.594,-0.137 1.203,0.012 3,0.5 v -0.5 C 69.469,116.406 69.824,116.531 68,116" /></g></g></g></g></g></g></svg>